HIERARCHY
ROOT Hips
{
	OFFSET 0.000000 71.427986 0.000000
	CHANNELS 6 Xposition Yposition Zposition Xrotation Yrotation Zrotation
	JOINT Pelvis
	{
		OFFSET 0.000000 0.000000 0.000000
		CHANNELS 3 Xrotation Yrotation Zrotation
		JOINT LeftUpLeg
		{
			OFFSET 6.797100 -2.508499 -1.318700
			CHANNELS 3 Xrotation Yrotation Zrotation
			JOINT LeftLeg
			{
				OFFSET 0.069008 -29.241863 0.690200
				CHANNELS 3 Xrotation Yrotation Zrotation
				JOINT LeftFoot
				{
					OFFSET -0.069008 -29.568123 -0.266800
					CHANNELS 3 Xrotation Yrotation Zrotation
					JOINT LeftToeBase
					{
						OFFSET 3.145500 -8.631000 16.059900
						CHANNELS 3 Xrotation Yrotation Zrotation
						End Site
						{
							OFFSET 0.000000 18.501587 0.000000
						}
					}
				}
			}
			JOINT Left_ShortSleeve
			{
				OFFSET 0.265923 -10.480953 1.153800
				CHANNELS 3 Xrotation Yrotation Zrotation
				End Site
				{
					OFFSET 1.725763 19.823879 0.000000
				}
			}
		}
		JOINT RightUpLeg
		{
			OFFSET -6.797100 -2.508499 -1.318700
			CHANNELS 3 Xrotation Yrotation Zrotation
			JOINT RightLeg
			{
				OFFSET -0.082453 -29.241932 0.688000
				CHANNELS 3 Xrotation Yrotation Zrotation
				JOINT RightFoot
				{
					OFFSET 0.082453 -29.568058 -0.264600
					CHANNELS 3 Xrotation Yrotation Zrotation
					JOINT RightToeBase
					{
						OFFSET -3.115300 -8.682800 16.113400
						CHANNELS 3 Xrotation Yrotation Zrotation
						End Site
						{
							OFFSET 0.000000 18.567114 0.000000
						}
					}
				}
			}
			JOINT Right_ShortSleeve
			{
				OFFSET -0.265923 -10.480953 1.153800
				CHANNELS 3 Xrotation Yrotation Zrotation
				End Site
				{
					OFFSET -1.725766 19.823910 0.000000
				}
			}
		}
	}
	JOINT Spine
	{
		OFFSET 0.000000 13.368103 0.470500
		CHANNELS 3 Xrotation Yrotation Zrotation
		JOINT Spine1
		{
			OFFSET 0.147000 13.837402 0.538800
			CHANNELS 3 Xrotation Yrotation Zrotation
			JOINT Spine2
			{
				OFFSET 0.168000 16.242897 -1.435500
				CHANNELS 3 Xrotation Yrotation Zrotation
				JOINT Neck
				{
					OFFSET 0.217200 18.631500 -1.679100
					CHANNELS 3 Xrotation Yrotation Zrotation
					JOINT Head
					{
						OFFSET 0.000000 6.599396 1.385900
						CHANNELS 3 Xrotation Yrotation Zrotation
						JOINT Hat
						{
							OFFSET -0.532200 27.220596 -10.096100
							CHANNELS 3 Xrotation Yrotation Zrotation
							End Site
							{
								OFFSET 0.000000 22.029861 0.000000
							}
						}
						JOINT HairD
						{
							OFFSET -10.777400 17.437393 -1.325900
							CHANNELS 3 Xrotation Yrotation Zrotation
							JOINT HairD1
							{
								OFFSET -3.290299 -11.051193 1.062200
								CHANNELS 3 Xrotation Yrotation Zrotation
								End Site
								{
									OFFSET 0.000000 11.579437 0.000000
								}
							}
						}
						JOINT HairB
						{
							OFFSET -10.777400 17.437393 1.467900
							CHANNELS 3 Xrotation Yrotation Zrotation
							JOINT HairB1
							{
								OFFSET -1.561200 -12.956299 3.590200
								CHANNELS 3 Xrotation Yrotation Zrotation
								End Site
								{
									OFFSET 0.000000 13.534866 0.000000
								}
							}
						}
						JOINT HairA
						{
							OFFSET 9.713100 17.437393 1.467900
							CHANNELS 3 Xrotation Yrotation Zrotation
							JOINT HairA1
							{
								OFFSET 1.561200 -12.956299 3.590200
								CHANNELS 3 Xrotation Yrotation Zrotation
								End Site
								{
									OFFSET 0.000000 13.534866 0.000000
								}
							}
						}
						JOINT HairC
						{
							OFFSET 9.713100 17.437393 -1.325900
							CHANNELS 3 Xrotation Yrotation Zrotation
							JOINT HairC1
							{
								OFFSET 3.290300 -11.051193 1.062200
								CHANNELS 3 Xrotation Yrotation Zrotation
								End Site
								{
									OFFSET 0.000000 11.579437 0.000000
								}
							}
						}
					}
				}
				JOINT LeftShoulder
				{
					OFFSET 5.101800 15.108002 -2.763700
					CHANNELS 3 Xrotation Yrotation Zrotation
					JOINT LeftArm
					{
						OFFSET 9.825497 2.506317 -1.597400
						CHANNELS 3 Xrotation Yrotation Zrotation
						JOINT LeftForeArm
						{
							OFFSET 21.966244 0.000000 0.000000
							CHANNELS 3 Xrotation Yrotation Zrotation
							JOINT LeftHand
							{
								OFFSET 33.879036 0.000000 0.000000
								CHANNELS 3 Xrotation Yrotation Zrotation
								JOINT LeftHandThumb1
								{
									OFFSET 6.715286 -2.359680 3.363841
									CHANNELS 3 Xrotation Yrotation Zrotation
									JOINT LeftHandThumb2
									{
										OFFSET 2.507072 -1.447464 1.447461
										CHANNELS 3 Xrotation Yrotation Zrotation
										JOINT LeftHandThumb3
										{
											OFFSET 2.898338 -1.673355 1.673357
											CHANNELS 3 Xrotation Yrotation Zrotation
											End Site
											{
												OFFSET -0.295959 3.727692 -0.131651
											}
										}
									}
								}
								JOINT LeftHandIndex1
								{
									OFFSET 14.190811 -0.254547 3.840278
									CHANNELS 3 Xrotation Yrotation Zrotation
									JOINT LeftHandIndex2
									{
										OFFSET 3.551727 0.000000 -0.000000
										CHANNELS 3 Xrotation Yrotation Zrotation
										JOINT LeftHandIndex3
										{
											OFFSET 2.894196 0.000000 0.000000
											CHANNELS 3 Xrotation Yrotation Zrotation
											End Site
											{
												OFFSET -1.000603 2.690872 0.366626
											}
										}
									}
								}
								JOINT LeftHandMiddle1
								{
									OFFSET 13.776489 0.000000 0.000000
									CHANNELS 3 Xrotation Yrotation Zrotation
									JOINT LeftHandMiddle2
									{
										OFFSET 3.438232 0.000000 0.000000
										CHANNELS 3 Xrotation Yrotation Zrotation
										JOINT LeftHandMiddle3
										{
											OFFSET 3.691551 0.000000 0.000000
											CHANNELS 3 Xrotation Yrotation Zrotation
											End Site
											{
												OFFSET -1.082298 3.499527 0.457670
											}
										}
									}
								}
								JOINT LeftHandRing1
								{
									OFFSET 13.966164 -0.268127 -3.067488
									CHANNELS 3 Xrotation Yrotation Zrotation
									JOINT LeftHandRing2
									{
										OFFSET 3.162567 0.000000 0.000000
										CHANNELS 3 Xrotation Yrotation Zrotation
										JOINT LeftHandRing3
										{
											OFFSET 3.324348 0.000000 0.000000
											CHANNELS 3 Xrotation Yrotation Zrotation
											End Site
											{
												OFFSET -0.861900 3.184998 0.405154
											}
										}
									}
								}
								JOINT LeftHandPinky1
								{
									OFFSET 13.131393 -0.168503 -5.746925
									CHANNELS 3 Xrotation Yrotation Zrotation
									JOINT LeftHandPinky2
									{
										OFFSET 2.849182 0.000000 0.000000
										CHANNELS 3 Xrotation Yrotation Zrotation
										JOINT LeftHandPinky3
										{
											OFFSET 2.805038 0.000000 0.000000
											CHANNELS 3 Xrotation Yrotation Zrotation
											End Site
											{
												OFFSET -0.882500 2.642609 0.325652
											}
										}
									}
								}
							}
							JOINT Left_Sleeve
							{
								OFFSET 6.592125 -0.646545 0.805568
								CHANNELS 3 Xrotation Yrotation Zrotation
								End Site
								{
									OFFSET -0.000179 20.275787 -0.000000
								}
							}
						}
					}
				}
				JOINT RightShoulder
				{
					OFFSET -5.731700 15.108002 -2.763700
					CHANNELS 3 Xrotation Yrotation Zrotation
					JOINT RightArm
					{
						OFFSET -9.825497 2.506317 -1.597400
						CHANNELS 3 Xrotation Yrotation Zrotation
						JOINT RightForeArm
						{
							OFFSET -21.966242 0.000000 0.000000
							CHANNELS 3 Xrotation Yrotation Zrotation
							JOINT RightHand
							{
								OFFSET -33.879032 0.000000 0.000000
								CHANNELS 3 Xrotation Yrotation Zrotation
								JOINT RightHandThumb1
								{
									OFFSET -6.715286 -2.359680 3.363841
									CHANNELS 3 Xrotation Yrotation Zrotation
									JOINT RightHandThumb2
									{
										OFFSET -2.507072 -1.447464 1.447461
										CHANNELS 3 Xrotation Yrotation Zrotation
										JOINT RightHandThumb3
										{
											OFFSET -2.898338 -1.673355 1.673357
											CHANNELS 3 Xrotation Yrotation Zrotation
											End Site
											{
												OFFSET 0.295959 3.727692 -0.131651
											}
										}
									}
								}
								JOINT RightHandIndex1
								{
									OFFSET -14.190811 -0.254547 3.840278
									CHANNELS 3 Xrotation Yrotation Zrotation
									JOINT RightHandIndex2
									{
										OFFSET -3.551727 0.000000 -0.000000
										CHANNELS 3 Xrotation Yrotation Zrotation
										JOINT RightHandIndex3
										{
											OFFSET -2.894196 0.000000 0.000000
											CHANNELS 3 Xrotation Yrotation Zrotation
											End Site
											{
												OFFSET 1.000603 2.690872 0.366626
											}
										}
									}
								}
								JOINT RightHandMiddle1
								{
									OFFSET -13.776489 0.000000 0.000000
									CHANNELS 3 Xrotation Yrotation Zrotation
									JOINT RightHandMiddle2
									{
										OFFSET -3.438232 0.000000 0.000000
										CHANNELS 3 Xrotation Yrotation Zrotation
										JOINT RightHandMiddle3
										{
											OFFSET -3.691551 0.000000 0.000000
											CHANNELS 3 Xrotation Yrotation Zrotation
											End Site
											{
												OFFSET 1.082298 3.499527 0.457670
											}
										}
									}
								}
								JOINT RightHandRing1
								{
									OFFSET -13.966164 -0.268127 -3.067488
									CHANNELS 3 Xrotation Yrotation Zrotation
									JOINT RightHandRing2
									{
										OFFSET -3.162567 0.000000 0.000000
										CHANNELS 3 Xrotation Yrotation Zrotation
										JOINT RightHandRing3
										{
											OFFSET -3.324348 0.000000 0.000000
											CHANNELS 3 Xrotation Yrotation Zrotation
											End Site
											{
												OFFSET 0.861900 3.184998 0.405154
											}
										}
									}
								}
								JOINT RightHandPinky1
								{
									OFFSET -13.131393 -0.168503 -5.746925
									CHANNELS 3 Xrotation Yrotation Zrotation
									JOINT RightHandPinky2
									{
										OFFSET -2.849182 0.000000 0.000000
										CHANNELS 3 Xrotation Yrotation Zrotation
										JOINT RightHandPinky3
										{
											OFFSET -2.805038 0.000000 0.000000
											CHANNELS 3 Xrotation Yrotation Zrotation
											End Site
											{
												OFFSET 0.882500 2.642609 0.325652
											}
										}
									}
								}
							}
							JOINT Right_Sleeve
							{
								OFFSET -6.592125 -0.646545 0.805568
								CHANNELS 3 Xrotation Yrotation Zrotation
								End Site
								{
									OFFSET 0.000179 20.275787 -0.000000
								}
							}
						}
					}
				}
				JOINT Bind_Right_JacketString
				{
					OFFSET -3.534800 11.969597 7.200700
					CHANNELS 3 Xrotation Yrotation Zrotation
					JOINT Bind_Right_JacketString1
					{
						OFFSET -0.319900 -6.102600 2.794100
						CHANNELS 3 Xrotation Yrotation Zrotation
						End Site
						{
							OFFSET 0.000000 6.719452 0.000000
						}
					}
				}
				JOINT Bind_Left_JacketString
				{
					OFFSET 2.904800 11.969597 7.200700
					CHANNELS 3 Xrotation Yrotation Zrotation
					JOINT Bind_Left_JacketString1
					{
						OFFSET 0.364800 -5.904503 3.186800
						CHANNELS 3 Xrotation Yrotation Zrotation
						End Site
						{
							OFFSET 0.000000 6.719513 0.000000
						}
					}
				}
				JOINT HairE
				{
					OFFSET 5.915200 17.612701 -11.592200
					CHANNELS 3 Xrotation Yrotation Zrotation
					JOINT HairE1
					{
						OFFSET 0.289200 -7.171898 -1.284500
						CHANNELS 3 Xrotation Yrotation Zrotation
						End Site
						{
							OFFSET 0.000000 7.291756 0.000000
						}
					}
				}
				JOINT HairF
				{
					OFFSET -0.864800 17.612701 -11.592200
					CHANNELS 3 Xrotation Yrotation Zrotation
					JOINT HairF1
					{
						OFFSET 0.000000 -14.087097 -2.127501
						CHANNELS 3 Xrotation Yrotation Zrotation
						End Site
						{
							OFFSET 0.000000 14.246841 0.000000
						}
					}
				}
				JOINT HairG
				{
					OFFSET -8.087700 17.612701 -11.592200
					CHANNELS 3 Xrotation Yrotation Zrotation
					JOINT HairG1
					{
						OFFSET -0.293600 -6.081398 -0.910100
						CHANNELS 3 Xrotation Yrotation Zrotation
						End Site
						{
							OFFSET 0.000000 6.156120 0.000000
						}
					}
				}
			}
		}
	}
	JOINT Pouch
	{
		OFFSET 0.000000 4.394501 10.847300
		CHANNELS 3 Xrotation Yrotation Zrotation
		End Site
		{
			OFFSET 0.000000 21.880577 0.000000
		}
	}
	JOINT Bag
	{
		OFFSET -13.229000 4.813004 -0.593300
		CHANNELS 3 Xrotation Yrotation Zrotation
		End Site
		{
			OFFSET 0.000000 21.880577 0.000000
		}
	}
	JOINT OccupyGuyFacialAnim_Joint
	{
		OFFSET 1.000000 -70.206398 -1.655000
		CHANNELS 3 Xrotation Yrotation Zrotation
		End Site
		{
			OFFSET 0.000000 21.880577 0.000000
		}
	}
}
MOTION
Frames: 4
Frame Time: 0.033333
6.908573 68.928139 15.372932 32.628186 -62.135372 47.342090 -0.000000 0.000000 0.000001 -31.866200 11.574740 -11.038531 32.980832 4.556663 -5.602995 -1.782628 30.668939 -5.133363 -0.000001 0.000001 -0.000001 -0.000000 -0.000000 -0.000000 -39.606792 -7.702030 -22.655300 41.196074 -10.028186 5.405494 -20.553947 -27.232985 -0.739597 -0.000000 -0.000000 0.000000 -0.000001 -0.000000 0.000000 3.848220 -0.334329 1.620160 7.013302 -0.681339 4.128987 7.084303 -0.496489 4.348270 -0.581354 11.240961 -6.421585 24.808912 22.179655 -39.310450 0.000002 0.000001 -0.000000 0.000002 0.000001 -0.000000 0.000002 0.000001 -0.000001 0.000002 0.000001 -0.000002 0.000001 -0.000001 0.000002 0.000002 0.000001 -0.000002 0.000001 -0.000001 0.000002 0.000002 0.000001 -0.000000 0.000002 0.000001 -0.000000 7.708366 -10.640139 -8.747279 -21.459035 -5.037098 -57.644071 -0.000033 -113.841864 -0.000020 -5.943373 -15.324129 3.683889 -10.291599 -18.126146 -0.564065 10.158820 44.385656 3.471821 0.000002 -0.000000 -0.000000 -1.638993 2.431193 -39.860226 4.421103 5.674199 -75.830406 0.000001 -0.000001 0.000001 2.421850 7.047717 -53.270964 4.421290 5.674280 -75.832230 -0.000001 0.000002 -0.000001 6.550991 9.302029 -61.991569 5.307288 5.825834 -84.658275 -0.000000 0.000003 -0.000003 14.703927 10.961993 -74.302274 5.233867 5.818534 -83.934480 -0.000000 -0.000003 -0.000001 0.000000 -0.000000 0.000001 4.642959 13.163990 0.245613 -10.263763 19.035590 37.481056 0.000035 112.175127 -0.000029 31.393643 2.256023 -34.370898 -11.277928 20.302360 1.220376 10.085917 -46.360360 -3.956414 0.000002 -0.000001 -0.000001 -1.904589 -1.550304 39.312947 3.533804 -4.519923 76.027362 -0.000001 0.000002 -0.000001 1.890923 -5.988315 52.769273 3.533784 -4.519937 76.026692 -0.000001 -0.000000 -0.000001 5.826471 -8.177215 61.466115 4.240802 -4.638578 84.864745 0.000002 -0.000002 0.000001 13.716239 -9.787661 73.719120 4.181909 -4.632910 84.136258 -0.000001 0.000000 -0.000005 0.000002 -0.000001 0.000001 0.000000 -0.000001 -0.000002 -0.000000 0.000001 -0.000000 0.000000 -0.000001 -0.000003 0.000000 -0.000001 -0.000003 0.000000 -0.000001 -0.000002 -0.000000 0.000001 -0.000000 0.000000 -0.000001 -0.000003 0.000000 -0.000001 -0.000003 0.000000 -0.000001 -0.000002 -0.000000 0.000001 -0.000000 -0.000000 0.000000 0.000001 -0.000000 0.000000 0.000001 -0.000000 0.000000 0.000001 
6.175360 68.269669 14.230783 28.017993 -62.104765 37.107185 0.000001 -0.000003 0.000000 -28.597251 9.935310 -5.053761 30.807275 5.252875 -5.790862 -9.062251 30.051914 -1.668623 0.000000 0.000001 -0.000000 -0.000000 -0.000000 -0.000000 -38.830708 -9.246152 -18.163039 48.175920 -9.076096 6.519133 -22.901244 -20.357428 -5.739006 0.000000 0.000000 -0.000000 0.000001 -0.000001 -0.000000 3.683521 -0.481438 1.363150 6.703828 -0.904742 3.602703 6.781057 -0.755366 3.810493 -0.420278 10.586618 -4.970988 22.617328 22.261567 -36.399219 -0.000003 -0.000001 0.000000 -0.000003 -0.000001 0.000000 -0.000003 -0.000001 -0.000000 -0.000003 -0.000001 -0.000000 -0.000004 0.000000 -0.000002 -0.000003 -0.000001 -0.000000 -0.000004 0.000000 -0.000002 -0.000003 -0.000001 0.000000 -0.000003 -0.000001 0.000000 7.764573 -11.718309 -8.282188 -25.085038 -8.352851 -57.735452 -0.000052 -112.627688 -0.000046 -4.557775 -15.152817 18.017815 -10.347410 -18.158075 -0.601759 10.165145 44.431432 3.473296 -0.000001 -0.000002 0.000001 -1.626154 2.458920 -39.954479 4.431170 5.676709 -75.932518 0.000001 0.000001 -0.000000 2.430470 7.054093 -53.376183 4.431223 5.676755 -75.932791 0.000001 0.000001 -0.000003 6.552105 9.295504 -62.086768 5.319184 5.826934 -84.775529 -0.000001 -0.000003 0.000000 14.703476 10.915482 -74.379353 5.245263 5.819713 -84.046939 -0.000001 -0.000001 0.000003 0.000003 -0.000001 0.000000 4.708719 12.815368 -0.029366 -12.502401 21.909425 41.291444 0.000028 112.935156 -0.000018 29.568729 3.559587 -34.811603 -11.269470 20.283073 1.210890 10.083168 -46.337960 -3.955790 0.000002 -0.000001 0.000001 -1.909111 -1.537463 39.260341 3.529782 -4.518921 75.976299 0.000000 0.000003 -0.000001 1.887765 -5.985933 52.720376 3.529795 -4.518936 75.976292 0.000000 -0.000001 0.000001 5.825874 -8.180079 61.423475 4.236027 -4.638150 84.806006 -0.000000 -0.000001 -0.000001 13.715899 -9.803320 73.678617 4.177195 -4.632434 84.078010 -0.000002 0.000001 -0.000001 0.000000 0.000000 -0.000001 -0.000001 -0.000001 -0.000000 0.000000 0.000001 0.000001 -0.000001 -0.000001 0.000001 -0.000001 -0.000001 0.000001 -0.000001 -0.000001 -0.000000 0.000000 0.000001 0.000000 -0.000001 -0.000001 0.000001 -0.000001 -0.000001 0.000001 -0.000001 -0.000001 -0.000000 0.000000 0.000001 0.000000 0.000001 -0.000003 0.000000 0.000001 -0.000003 0.000000 0.000001 -0.000003 0.000000 
5.689892 67.445183 13.231016 24.846247 -60.890856 29.576478 -0.000000 0.000001 0.000000 -29.081067 10.009598 0.379366 33.111541 5.319735 -5.681766 -14.094956 26.325796 -0.614171 -0.000000 0.000002 -0.000000 0.000001 0.000001 -0.000001 -39.681312 -10.222262 -16.576044 55.012744 -7.964932 6.870436 -23.659975 -10.905760 -7.561769 -0.000001 -0.000000 0.000000 0.000003 -0.000000 -0.000000 3.489650 -0.565018 0.927427 6.306047 -1.060759 2.754047 6.383068 -0.933110 2.946636 -0.556314 9.944854 -3.737837 19.944074 22.246093 -33.912955 0.000001 -0.000001 0.000000 0.000001 -0.000001 0.000000 0.000001 -0.000001 0.000001 0.000001 -0.000001 0.000000 -0.000001 0.000001 -0.000001 0.000001 -0.000001 0.000000 -0.000001 0.000001 -0.000001 0.000001 -0.000001 0.000000 0.000001 -0.000001 0.000000 7.807335 -12.542399 -7.961517 -30.044086 -10.807141 -57.590755 -0.000076 -111.108525 -0.000089 -3.423259 -14.084525 30.796206 -10.376162 -18.176296 -0.626264 10.168530 44.455922 3.474066 0.000000 -0.000000 -0.000003 -1.618873 2.474516 -40.004544 4.436577 5.678070 -75.987214 0.000000 0.000003 -0.000003 2.435075 7.057497 -53.432536 4.436549 5.678073 -75.986654 0.000001 -0.000002 0.000000 6.552081 9.291710 -62.137557 5.325579 5.827510 -84.838251 -0.000001 0.000000 0.000001 14.701982 10.890143 -74.418306 5.251384 5.820367 -84.107148 -0.000001 0.000006 0.000000 -0.000002 -0.000000 -0.000001 4.799244 12.361769 -0.424164 -17.490552 24.903353 45.322509 0.000076 112.415707 -0.000068 26.882373 4.912366 -34.544665 -11.266824 20.276576 1.207404 10.082209 -46.330433 -3.955623 0.000001 -0.000001 0.000003 -1.911286 -1.532609 39.242927 3.528432 -4.518582 75.959080 -0.000001 -0.000000 0.000002 1.886708 -5.985119 52.703898 3.528451 -4.518615 75.959285 0.000001 -0.000003 0.000004 5.826038 -8.181262 61.409234 4.234439 -4.638001 84.786178 -0.000001 -0.000003 -0.000001 13.716854 -9.808771 73.665769 4.175619 -4.632265 84.058339 -0.000002 0.000001 0.000001 0.000001 0.000002 0.000001 -0.000001 0.000001 -0.000001 -0.000001 0.000002 0.000001 -0.000001 0.000001 -0.000000 -0.000001 0.000001 -0.000000 -0.000001 0.000001 -0.000001 -0.000001 0.000002 0.000001 -0.000001 0.000001 -0.000000 -0.000001 0.000001 -0.000000 -0.000001 0.000001 -0.000001 -0.000001 0.000002 0.000001 -0.000000 0.000001 0.000000 -0.000000 0.000001 0.000000 -0.000000 0.000001 0.000000 
5.409012 66.702911 12.322382 22.920168 -58.454200 24.538664 0.000000 0.000003 -0.000000 -33.461739 9.904617 5.248711 39.231855 5.234645 -6.039218 -15.709348 21.406214 -1.603542 0.000000 0.000002 -0.000000 -0.000001 0.000003 0.000001 -40.115115 -9.852889 -17.691872 57.839039 -8.581439 5.544354 -23.669428 -3.482150 -4.953879 -0.000001 -0.000000 -0.000000 -0.000001 -0.000001 -0.000000 3.302857 -0.554567 0.465421 5.897196 -1.078234 1.841396 5.969509 -0.961497 2.016515 -0.743781 9.306118 -2.977448 17.093469 21.694641 -31.796484 0.000001 0.000000 -0.000001 0.000001 0.000000 -0.000001 0.000001 0.000000 -0.000001 0.000001 0.000000 -0.000000 0.000001 0.000002 -0.000001 0.000001 0.000000 -0.000000 0.000001 0.000002 -0.000001 0.000001 0.000000 -0.000001 0.000001 0.000000 -0.000001 7.827950 -13.187674 -7.785570 -35.164433 -12.735250 -57.665047 -0.000097 -109.958635 -0.000108 -2.431916 -12.335531 38.307922 -10.364005 -18.169751 -0.619361 10.167192 44.446158 3.473763 0.000001 0.000001 -0.000005 -1.621516 2.468816 -39.984330 4.434448 5.677542 -75.965412 -0.000001 0.000000 -0.000002 2.433236 7.056165 -53.410102 4.434436 5.677549 -75.965193 0.000003 0.000000 -0.000001 6.551678 9.293027 -62.117231 5.323034 5.827282 -84.813252 -0.000000 0.000001 -0.000001 14.701798 10.899965 -74.401298 5.248957 5.820108 -84.083180 0.000002 0.000000 -0.000001 0.000002 0.000000 -0.000000 4.935262 11.896001 -1.242650 -23.969506 27.423391 49.533348 0.000011 110.949040 -0.000002 23.409362 5.947697 -33.630789 -11.268921 20.281261 1.209649 10.082900 -46.335884 -3.955756 0.000001 0.000003 -0.000001 -1.910356 -1.535612 39.255798 3.529415 -4.518819 75.971511 -0.000000 0.000001 0.000004 1.887470 -5.985711 52.715800 3.529421 -4.518869 75.971525 0.000001 0.000001 -0.000006 5.826309 -8.180617 61.419602 4.235589 -4.638092 84.800453 -0.000001 0.000001 -0.000001 13.717216 -9.804998 73.675823 4.176757 -4.632366 84.072518 -0.000000 0.000001 -0.000003 0.000001 0.000001 0.000002 0.000002 -0.000001 0.000001 0.000002 0.000001 0.000001 0.000002 -0.000001 0.000001 0.000002 -0.000001 0.000001 0.000002 -0.000001 0.000001 0.000002 0.000001 0.000000 0.000002 -0.000001 0.000001 0.000002 -0.000001 0.000001 0.000002 -0.000001 0.000001 0.000002 0.000001 0.000000 0.000000 0.000003 -0.000000 0.000000 0.000003 -0.000000 0.000000 0.000003 -0.000000 
